<mxfile host="app.diagrams.net" modified="2023-05-21T09:09:30.716Z" agent="Mozilla/5.0 (Windows NT 10.0; Win64; x64) AppleWebKit/537.36 (KHTML, like Gecko) Chrome/113.0.0.0 Safari/537.36" version="21.3.2" etag="ULtbosLZ8832uam8J7c4" type="github">
  <diagram name="Страница 1" id="HeK2V2T16iIPugYTSXoN">
    <mxGraphModel>
      <root>
        <mxCell id="0" />
        <mxCell id="1" parent="0" />
      </root>
    </mxGraphModel>
  </diagram>
</mxfile>
